Genre:Comedy | Romance
Language:English

IMDb: http://www.imdb.com/title/tt1493842/

Source:BluRay.x264-THUGLiNE
Subtitles:Romana


Format : MPEG-4
Format profile : Base Media
Codec ID : isom
File size : 1.80 GiB
Duration : 1h 26mn
Overall bit rate : 2 984 Kbps

Video
Format settings, CABAC : Yes
Format settings, ReFrames : 3 frames
Codec ID : avc1
Codec ID/Info : Advanced Video Coding
Duration : 1h 26mn
Bit rate mode : Variable
Bit rate : 2 546 Kbps
Maximum bit rate : 9 799 Kbps
Width : 1 280 pixels
Height : 720 pixels
Display aspect ratio : 16:9
Frame rate mode : Constant
Frame rate : 23.976 fps
Color space : YUV
Chroma subsampling : 4:2:0
Bit depth : 8 bits
Scan type : Progressive
Bits/(Pixel*Frame) : 0.115
Stream size : 1.53 GiB (85%)
Writing library : x264


Audio
ID : 2
Format : AAC
Format/Info : Advanced Audio Codec
Format version : Version 4
Format profile : LC
Format settings, SBR : No
Codec ID : 40
Duration : 1h 26mn
Bit rate mode : Variable
Bit rate : 444 Kbps
Maximum bit rate : 518 Kbps
Channel(s) : 6 channels
Channel positions : Front: L C R, Side: L R, LFE
Sampling rate : 48.0 KHz
Stream size : 275 MiB (15%)


Plot:
A freelance writer looking for romance sells a story to Cosmopolitan magazine about finding love in the workplace and goes undercover at a Finance Company
 
http://rapidhdd.com/images/350051vlcsnap-00001.png
 
http://www.rapidhdd.com/images/469681vlcsnap-00003.png
 
http://www.rapidhdd.com/images/239118vlcsnap-00002.png
 
http://www.rapidhdd.com/images/84422vlcsnap-00005.png
 
http://www.rapidhdd.com/images/207942vlcsnap-00004.png
 
http://www.rapidhdd.com/images/19148vlcsnap-00006.png
 
http://www.rapidhdd.com/images/290962vlcsnap-00007.png